<svg width="24" height="24" viewBox="0 0 24 24" fill="none" xmlns="http://www.w3.org/2000/svg">
<g clip-path="url(#clip0_1469_5314)">
<path d="M16.2652 24.0033C20.5364 24.0033 23.9989 20.5409 23.9989 16.2697C23.9989 11.9985 20.5364 8.53601 16.2652 8.53601C11.994 8.53601 8.53156 11.9985 8.53156 16.2697C8.53156 20.5409 11.994 24.0033 16.2652 24.0033Z" fill="#FF4949"/>
<path d="M21.7338 21.7382L10.7967 10.8012C13.812 7.78543 18.7185 7.78543 21.7338 10.8012C24.7495 13.8164 24.7495 18.723 21.7338 21.7382Z" fill="#F30051"/>
<path d="M16.2652 21.1914C18.9834 21.1914 21.187 18.9879 21.187 16.2697C21.187 13.5515 18.9834 11.3479 16.2652 11.3479C13.547 11.3479 11.3434 13.5515 11.3434 16.2697C11.3434 18.9879 13.547 21.1914 16.2652 21.1914Z" fill="#F5FAFF"/>
<path d="M19.7454 19.7499L12.785 12.7894C14.7039 10.8705 17.8265 10.8705 19.7454 12.7894C21.6644 14.7083 21.6644 17.8309 19.7454 19.7499Z" fill="#DFE9EE"/>
<path d="M17.7567 14.7782C16.9341 13.9556 15.5963 13.9556 14.7737 14.7782C13.9511 15.6008 13.9511 16.9385 14.7737 17.7611C15.5963 18.5837 16.9341 18.5837 17.7567 17.7611C18.5793 16.9385 18.5793 15.6008 17.7567 14.7782Z" fill="#FF4949"/>
<path d="M17.7567 17.7611L14.7737 14.7782C15.5963 13.9556 16.9341 13.9556 17.7567 14.7782C18.5793 15.6008 18.5793 16.9385 17.7567 17.7611Z" fill="#F30051"/>
<path d="M12.0468 5.1184V9.38561L10.7254 10.7299L9.38116 12.0981H5.11161L0.00445557 6.96421L4.37666 6.08958L5.80062 5.80507L6.08513 4.38158L6.96164 0L12.0468 5.1184Z" fill="#76E2F8"/>
<path d="M12.0467 5.1184V9.38561L10.7254 10.7299L5.8006 5.80507L6.08511 4.38158L6.96161 0L12.0467 5.1184Z" fill="#4BB9EC"/>
<path d="M15.7679 14.7782L15.2711 15.2755L14.7737 15.7723L13.5176 14.5162L14.0149 14.0193L14.5117 13.522L15.7679 14.7782Z" fill="#575F64"/>
<path d="M14.012 14.0291L14.509 13.5321L15.7649 14.7881L15.2679 15.2851L14.012 14.0291Z" fill="#474F54"/>
<path d="M12.5234 9.54499L11.8593 11.8637L9.54051 12.5274L4.37665 6.0896L5.23112 5.2356L6.08512 4.38159L12.5234 9.54499Z" fill="#575F64"/>
<path d="M12.5235 9.54499L11.8593 11.8637L5.23114 5.2356L6.08514 4.38159L12.5235 9.54499Z" fill="#474F54"/>
<path d="M14.5118 14.5162C13.6896 15.3388 12.3514 15.3388 11.5288 14.5162L9.54053 12.5274L11.032 11.0364L12.5234 9.54498L14.5118 11.5333C15.3344 12.3559 15.3344 13.6941 14.5118 14.5162Z" fill="#76E2F8"/>
<path d="M14.5117 14.5162L11.032 11.0364L12.5234 9.54498L14.5117 11.5333C15.3343 12.3559 15.3343 13.6941 14.5117 14.5162Z" fill="#4BB9EC"/>
</g>
<defs>
<clipPath id="clip0_1469_5314">
<rect width="24" height="24" fill="white"/>
</clipPath>
</defs>
</svg>
