<svg width="40" height="40" viewBox="0 0 40 40" fill="none" xmlns="http://www.w3.org/2000/svg">
<g opacity="0.2">
<path d="M9.45312 19.9231V32.5212L14.7884 35.1889L15.8366 33.0925V19.9231H9.45312Z" fill="#FF4949"/>
<path d="M24.1635 19.9231V33.0925L25.2116 35.1889L30.5469 32.5212V19.9231H24.1635Z" fill="#F30051"/>
<path d="M25.8594 23.6343V37.0702L20 39.9999L14.1406 37.0702V23.6343H25.8594Z" fill="#FF8E8E"/>
<path d="M25.8594 23.6343V37.0702L20 39.9999V23.6343H25.8594Z" fill="#FF4949"/>
<path d="M20 0C12.8922 0 7.10938 5.78281 7.10938 12.8906C7.10938 19.9984 12.8922 25.7812 20 25.7812C27.1078 25.7812 32.8906 19.9984 32.8906 12.8906C32.8906 5.78281 27.1078 0 20 0Z" fill="#FFE375"/>
<path d="M32.8906 12.8906C32.8906 19.9984 27.1078 25.7812 20 25.7812V0C27.1078 0 32.8906 5.78281 32.8906 12.8906Z" fill="#FFB725"/>
<path d="M21.1719 16.6898V18.75H23.5156V21.0938H16.4844V18.75H18.8281V16.6898C18.2984 16.9633 17.7133 17.1094 17.0929 17.1094C14.8054 17.1094 13.014 15.2086 13.014 12.782C13.014 10.2344 14.9945 8.5625 17.7359 6.24922C19.2437 4.97656 19.2586 4.94687 20 4.30859C20.7422 4.94766 20.7617 4.98047 22.264 6.24922C24.7961 8.38594 26.9859 10.132 26.9859 12.782C26.9859 15.2086 25.1945 17.1094 22.907 17.1094C22.2867 17.1094 21.7015 16.9633 21.1719 16.6898Z" fill="#575F64"/>
<path d="M21.1719 16.6898V18.75H23.5156V21.0938H20V4.30859C20.7422 4.94766 20.7617 4.98047 22.2641 6.24922C24.7961 8.38594 26.9859 10.132 26.9859 12.782C26.9859 15.2086 25.1945 17.1094 22.907 17.1094C22.2867 17.1094 21.7016 16.9633 21.1719 16.6898Z" fill="#474F54"/>
</g>
</svg>
